<svg xmlns="http://www.w3.org/2000/svg" viewBox="0 0 640 360" font-family="-apple-system, Segoe UI, sans-serif">
  <rect x="0" y="0" width="640" height="360" rx="14" fill="#0a140e"/>
  <text x="22" y="30" fill="#16c47f" font-size="17" font-weight="700">Как из "D,угол,см" получается точка на радаре</text>

  <!-- кольца -->
  <g fill="none" stroke="#1e4630" stroke-width="2">
    <path d="M70 300 A 230 230 0 0 1 530 300"/>
    <path d="M147 300 A 153 153 0 0 1 453 300"/>
    <path d="M223 300 A 77 77 0 0 1 377 300"/>
  </g>
  <line x1="70" y1="300" x2="530" y2="300" stroke="#1e4630" stroke-width="2"/>

  <!-- машина -->
  <circle cx="300" cy="300" r="7" fill="#7ed0a0"/>
  <text x="300" y="326" fill="#7ed0a0" font-size="12" text-anchor="middle">машина</text>

  <!-- луч под углом 55° на расстоянии ~ кольца 2 -->
  <line x1="300" y1="300" x2="388" y2="174" stroke="#28a05a" stroke-width="2"/>
  <circle cx="388" cy="174" r="6" fill="#ffd166"/>
  <text x="404" y="170" fill="#ffd166" font-size="13" font-weight="700">препятствие</text>

  <!-- подписи угла и расстояния -->
  <path d="M340 300 A 40 40 0 0 0 320 264" fill="none" stroke="#9a9ab0" stroke-width="1.5"/>
  <text x="350" y="280" fill="#cfcfe0" font-size="13">угол</text>
  <text x="350" y="296" fill="#9a9ab0" font-size="11">(куда смотрит серво)</text>

  <text x="250" y="150" fill="#cfcfe0" font-size="13">расстояние</text>
  <text x="250" y="166" fill="#9a9ab0" font-size="11">(сколько см увидел</text>
  <text x="250" y="180" fill="#9a9ab0" font-size="11">ультразвук)</text>

  <text x="22" y="332" fill="#9a9ab0" font-size="12">Серво крутит датчик и для каждого угла мерит расстояние. Близко — красная точка, далеко — зелёная.</text>
  <text x="22" y="350" fill="#7ed0a0" font-size="12">x = центр + см · cos(угол),   y = центр − см · sin(угол)  — обычная тригонометрия из математики.</text>
</svg>
